<?xml version="1.0" encoding="UTF-8" standalone="no"?>
<!-- Created with Inkscape (http://www.inkscape.org/) -->

<svg
   width="90.388992mm"
   height="20.311178mm"
   viewBox="0 0 78.388992 30.311178"
   version="1.1"
   id="svg1"
   xml:space="preserve"
   sodipodi:docname="logo.svg"
   inkscape:version="1.3.2 (091e20e, 2023-11-25, custom)"
   xmlns:inkscape="http://www.inkscape.org/namespaces/inkscape"
   xmlns:sodipodi="http://sodipodi.sourceforge.net/DTD/sodipodi-0.dtd"
   xmlns="http://www.w3.org/2000/svg"
   xmlns:svg="http://www.w3.org/2000/svg"><sodipodi:namedview
     id="namedview1"
     pagecolor="#ffffff"
     bordercolor="#ffffff"
     borderopacity="0.25"
     inkscape:showpageshadow="2"
     inkscape:pageopacity="0.0"
     inkscape:pagecheckerboard="0"
     inkscape:deskcolor="#d1d1d1"
     inkscape:document-units="mm"
     inkscape:zoom="2.2623099"
     inkscape:cx="171.72713"
     inkscape:cy="64.756821"
     inkscape:window-width="1920"
     inkscape:window-height="1009"
     inkscape:window-x="-8"
     inkscape:window-y="-8"
     inkscape:window-maximized="1"
     inkscape:current-layer="layer1" /><defs
     id="defs1" /><g
     inkscape:label="Livello 1"
     inkscape:groupmode="layer"
     id="layer1"
     transform="translate(-13.607056,-4.5906199)"><path
       style="fill:#ffffff;stroke-width:0.402764"
       d="m 53.597403,34.881001 c -0.0149,-0.018 -0.04371,-0.86288 -0.08644,-2.53599 -0.03524,-1.37996 -0.07319,-2.84961 -0.08434,-3.26588 -0.01116,-0.41627 -0.02981,-1.13477 -0.04149,-1.59665 -0.02964,-1.17305 -0.07758,-3.03904 -0.114413,-4.45301 -0.01716,-0.65862 -0.06843,-2.66713 -0.113946,-4.46337 -0.04551,-1.79624 -0.09676,-3.79775 -0.113893,-4.44782 -0.01712,-0.65007 -0.0541,-2.10572 -0.08216,-3.23478 -0.02807,-1.1290596 -0.05594,-2.2021396 -0.06196,-2.3846096 -0.006,-0.18247 -0.0178,-0.58838 -0.02618,-0.90201 -0.0084,-0.31362 -0.01792,-0.5469 -0.02114,-0.51839 -0.0032,0.0285 -0.07138,1.36286 -0.151435,2.9652096 -0.08005,1.60236 -0.219877,4.39236 -0.310712,6.2 -0.206114,4.10164 -0.569286,11.34577 -0.61177,12.20299 -0.01752,0.35354 -0.03629,0.66318 -0.04173,0.68808 -0.01305,0.0599 -0.08738,0.083 -0.129964,0.0404 -0.02815,-0.0282 -0.04481,-0.34844 -0.121654,-2.34009 -0.09993,-2.58981 -0.282893,-7.31811 -0.45315,-11.71029 -0.06253,-1.6133 -0.114437,-2.98497 -0.115339,-3.04816 -8.06e-4,-0.0632 -0.0054,-0.10555 -0.01011,-0.0941 -0.0047,0.0114 -0.209272,2.72675 -0.454708,6.0341 -0.245432,3.30736 -0.46454,6.25467 -0.486897,6.54958 -0.02384,0.31479 -0.05054,0.54811 -0.06459,0.56505 -0.03037,0.0366 -0.08986,0.0371 -0.119806,0.001 -0.01458,-0.0176 -0.05753,-0.62536 -0.116806,-1.65367 -0.05155,-0.89423 -0.182319,-3.1655 -0.290598,-5.04727 -0.108279,-1.88177 -0.21549,-3.73795 -0.238243,-4.12484 -0.02276,-0.3869 -0.04137,-0.7407 -0.04137,-0.78624 0,-0.0455 -0.0044,-0.0783 -0.0099,-0.0729 -0.0054,0.005 -0.108239,1.46496 -0.228484,3.24342 -0.120245,1.77845 -0.255602,3.77943 -0.300792,4.4466 -0.04519,0.66717 -0.115109,1.70759 -0.155374,2.31204 -0.04028,0.60445 -0.07778,1.11937 -0.08338,1.14427 -0.01349,0.06 -0.08773,0.0829 -0.130419,0.0403 -0.02803,-0.028 -0.06191,-0.57143 -0.234372,-3.76048 -0.110877,-2.05025 -0.213501,-3.96333 -0.228053,-4.2513 -0.01454,-0.28796 -0.03182,-0.52357 -0.03834,-0.52357 -0.0065,0 -0.04726,0.33825 -0.09052,0.75167 -0.04326,0.41342 -0.105621,1.00361 -0.138587,1.31153 -0.03299,0.30793 -0.163304,1.53964 -0.289643,2.73712 -0.126339,1.1975 -0.234288,2.19811 -0.239894,2.2236 -0.01313,0.0597 -0.109491,0.0878 -0.143158,0.0417 -0.01643,-0.0225 -0.03444,-0.61011 -0.05997,-1.9574 -0.05746,-3.03086 -0.06317,-3.29579 -0.07025,-3.26276 -0.0036,0.0171 -0.07582,0.90186 -0.160348,1.96612 -0.09935,1.2509 -0.162398,1.94551 -0.178332,1.96471 -0.03085,0.0372 -0.09026,0.0383 -0.120128,0.002 -0.01414,-0.017 -0.05855,-0.65701 -0.117675,-1.69515 -0.05224,-0.91729 -0.101674,-1.69522 -0.109854,-1.72873 -0.0093,-0.038 -0.06528,0.46426 -0.148978,1.33605 -0.142353,1.48285 -0.144391,1.4951 -0.243729,1.46357 -0.02437,-0.008 -0.0488,-0.0299 -0.0543,-0.0493 -0.0055,-0.0194 -0.03472,-0.48778 -0.06495,-1.04091 -0.03025,-0.55313 -0.06157,-1.02306 -0.06964,-1.04429 -0.0082,-0.0216 -0.03999,0.18328 -0.07231,0.46656 -0.0317,0.27784 -0.06612,0.52615 -0.0765,0.55181 -0.02574,0.0636 -0.117015,0.0636 -0.144439,0 -0.01108,-0.0257 -0.08116,-0.30793 -0.155777,-0.62726 -0.07462,-0.31933 -0.138281,-0.58938 -0.14147,-0.60011 -0.0032,-0.0107 -0.03734,0.10421 -0.07588,0.25543 -0.07366,0.28902 -0.1038,0.33709 -0.184301,0.29401 -0.03653,-0.0196 -0.06472,-0.11219 -0.118831,-0.39068 -0.0073,-0.0375 -0.01631,-0.065 -0.02006,-0.0613 -0.0036,0.004 -0.03117,0.16038 -0.06092,0.34805 -0.06444,0.4065 -0.0738,0.43452 -0.145123,0.43452 -0.06516,0 -0.08009,-0.0336 -0.177627,-0.39981 -0.09039,-0.33937 -0.110152,-0.34245 -0.235206,-0.0367 -0.151499,0.37041 -0.214862,0.3575 -0.292032,-0.0595 -0.02831,-0.15303 -0.05429,-0.28105 -0.05772,-0.28447 -0.0032,-0.004 -0.03129,0.15341 -0.06198,0.34851 -0.03065,0.19511 -0.0663,0.36745 -0.0792,0.38299 -0.02932,0.0353 -0.08962,0.0365 -0.116899,0.002 -0.01136,-0.0143 -0.04519,-0.19779 -0.07516,-0.40786 -0.02997,-0.21006 -0.05734,-0.38477 -0.06081,-0.38824 -0.0036,-0.004 -0.02807,0.13108 -0.05465,0.29899 -0.02658,0.16792 -0.05671,0.32163 -0.06694,0.34159 -0.02743,0.0535 -0.118082,0.0467 -0.138708,-0.0104 -0.0093,-0.0256 -0.05661,-0.28926 -0.105201,-0.58578 -0.08129,-0.49608 -0.105613,-0.59728 -0.136223,-0.56667 -0.0061,0.006 -0.04935,0.26212 -0.09603,0.56885 -0.06185,0.40643 -0.09373,0.56471 -0.117559,0.5836 -0.08496,0.0674 -0.121445,0.007 -0.191413,-0.31622 -0.03456,-0.15966 -0.0679,-0.30429 -0.0741,-0.3214 -0.01607,-0.0443 -0.05782,0.0396 -0.185703,0.37324 -0.1032,0.26924 -0.109712,0.28018 -0.170449,0.2863 -0.06107,0.006 -0.06507,0.001 -0.121091,-0.14943 -0.03186,-0.0857 -0.06298,-0.15078 -0.06914,-0.14463 -0.0062,0.006 -0.03919,0.0921 -0.0734,0.19091 -0.05587,0.16141 -0.06792,0.18039 -0.118243,0.18619 -0.04971,0.006 -0.06885,-0.013 -0.169564,-0.16588 -0.106567,-0.16179 -0.116342,-0.18761 -0.15943,-0.42119 -0.02525,-0.13685 -0.05177,-0.26512 -0.05896,-0.28503 -0.0078,-0.0217 -0.03262,0.0532 -0.06181,0.18662 -0.02682,0.12256 -0.05809,0.23449 -0.0695,0.24875 -0.03504,0.0438 -0.118465,0.0312 -0.137359,-0.0207 -0.0093,-0.0257 -0.05343,-0.21226 -0.09798,-0.41467 -0.07861,-0.35714 -0.08253,-0.36801 -0.132835,-0.36798 -0.07367,4e-5 -0.17923,0.0702 -0.191829,0.1275 -0.0059,0.0267 -0.05137,0.29947 -0.101093,0.60605 -0.08404,0.5182 -0.09375,0.55894 -0.137967,0.57909 -0.08496,0.0387 -0.105657,-0.013 -0.177433,-0.44365 -0.03689,-0.22141 -0.07252,-0.39323 -0.07914,-0.38183 -0.0066,0.0114 -0.02803,0.0697 -0.04757,0.12962 -0.04218,0.12922 -0.245327,0.39914 -0.300405,0.39914 -0.0515,0 -0.0728,-0.0302 -0.131937,-0.18685 l -0.05078,-0.13455 -0.02445,0.0933 c -0.01345,0.0513 -0.04497,0.15863 -0.07002,0.23846 -0.0425,0.1354 -0.04956,0.14515 -0.105057,0.14515 -0.05163,0 -0.07349,-0.0218 -0.165342,-0.16472 -0.08323,-0.12953 -0.119867,-0.21593 -0.171473,-0.40435 l -0.06563,-0.23962 -0.05358,0.12053 c -0.02948,0.0663 -0.107485,0.19276 -0.173373,0.28105 -0.06589,0.0883 -0.152458,0.21855 -0.192372,0.28948 -0.07644,0.13582 -0.145112,0.17966 -0.196593,0.1255 -0.01494,-0.0157 -0.0671,-0.24789 -0.115863,-0.51589 -0.06599,-0.36266 -0.09868,-0.4979 -0.127829,-0.52877 -0.03911,-0.0414 -0.03923,-0.0414 -0.07864,0.007 -0.02171,0.0264 -0.105182,0.17755 -0.185489,0.33582 -0.08031,0.15827 -0.15537,0.29354 -0.166804,0.30061 -0.03927,0.0243 -0.101364,-0.0128 -0.148124,-0.0885 l -0.04682,-0.0758 -0.03862,0.13386 c -0.117752,0.40813 -0.118896,0.41107 -0.165165,0.42576 -0.03734,0.0118 -0.06332,-0.006 -0.144564,-0.0973 -0.200931,-0.22662 -0.329626,-0.4284 -0.418475,-0.65611 -0.124148,-0.31818 -0.141882,-0.31201 -0.253318,0.0882 -0.04763,0.17107 -0.133223,0.41368 -0.190197,0.53912 -0.09533,0.20989 -0.108147,0.2281 -0.160619,0.2281 -0.109543,0 -0.108609,-0.0481 0.0059,-0.30347 0.05864,-0.13076 0.147609,-0.38719 0.199867,-0.57607 0.0518,-0.18723 0.10372,-0.34994 0.115368,-0.36159 0.02638,-0.0264 0.250575,-0.0392 0.286916,-0.0163 0.01474,0.009 0.07257,0.13266 0.128546,0.27425 0.07085,0.17923 0.140766,0.31273 0.230136,0.43943 0.0706,0.1001 0.131719,0.17865 0.135811,0.17456 0.0041,-0.004 0.04284,-0.12799 0.08611,-0.27531 0.07116,-0.24229 0.08353,-0.26856 0.129517,-0.27515 0.03879,-0.006 0.06878,0.0135 0.1265,0.0806 l 0.07566,0.0878 0.04472,-0.10129 c 0.0907,-0.20546 0.280021,-0.50599 0.326484,-0.51825 0.05138,-0.0136 0.266956,0.10434 0.287331,0.15714 0.01043,0.0271 0.154581,0.77916 0.154581,0.80657 0,0.005 0.0383,-0.0456 0.0851,-0.11305 0.0468,-0.0675 0.107256,-0.1463 0.134342,-0.17518 0.02711,-0.0289 0.08554,-0.14086 0.129903,-0.24883 0.116298,-0.28307 0.128526,-0.30577 0.170611,-0.31678 0.0209,-0.005 0.05152,8.1e-4 0.06806,0.0138 0.01655,0.0131 0.07308,0.18465 0.125634,0.38133 0.09265,0.34674 0.16469,0.52488 0.186149,0.46029 0.0055,-0.0165 0.03846,-0.13258 0.07329,-0.25803 0.09551,-0.34388 0.168605,-0.35833 0.282015,-0.0558 0.03456,0.0922 0.06879,0.17354 0.0761,0.18085 0.02799,0.028 0.093,-0.11119 0.192864,-0.41304 0.09728,-0.29404 0.10711,-0.31378 0.159309,-0.31981 0.07615,-0.009 0.086,0.017 0.142505,0.37394 0.02658,0.16792 0.0507,0.30294 0.05358,0.30006 0.0028,-0.003 0.02948,-0.15818 0.05915,-0.34511 0.02964,-0.18693 0.05883,-0.34782 0.06484,-0.35755 0.02606,-0.0422 0.256149,-0.13636 0.362543,-0.1484 0.151766,-0.0172 0.165291,-3.2e-4 0.226869,0.28256 0.02674,0.12291 0.05501,0.21156 0.06278,0.19698 0.0078,-0.0146 0.03428,-0.11924 0.0589,-0.23261 0.02461,-0.11337 0.05492,-0.21834 0.06731,-0.23327 0.0286,-0.0345 0.08882,-0.035 0.117023,-8.1e-4 0.01192,0.0144 0.06434,0.24334 0.116451,0.50879 0.08798,0.44817 0.133451,0.60553 0.174976,0.60553 0.0092,0 0.04617,-0.0968 0.0822,-0.21502 0.03605,-0.11826 0.07989,-0.22694 0.09745,-0.24151 0.05578,-0.0463 0.119758,0.004 0.162886,0.12736 0.083,0.23791 0.07075,0.23461 0.144547,0.0389 0.03653,-0.0969 0.111022,-0.2579 0.165504,-0.3577 0.08062,-0.14767 0.108033,-0.18143 0.147275,-0.18143 0.0695,0 0.08499,0.0296 0.127643,0.24364 0.02102,0.1055 0.04368,0.19181 0.05035,0.19181 0.0067,0 0.02392,-0.0817 0.0383,-0.18144 0.08338,-0.57835 0.0902,-0.6094 0.138679,-0.63149 0.03887,-0.0177 0.06664,-0.007 0.17275,0.0648 0.07401,0.0503 0.130584,0.10494 0.13646,0.1319 0.0176,0.0809 0.09413,0.54938 0.09413,0.57642 0,0.0775 0.02308,-0.0265 0.07135,-0.32149 0.02972,-0.18162 0.06429,-0.34258 0.07683,-0.35768 0.02876,-0.0346 0.0892,-0.0354 0.116246,-0.002 0.01136,0.0143 0.04519,0.19779 0.07516,0.40785 0.02997,0.21007 0.0575,0.38494 0.06116,0.3886 0.0036,0.004 0.02827,-0.14021 0.05468,-0.31973 0.05559,-0.37784 0.05372,-0.37097 0.104903,-0.38436 0.08298,-0.0217 0.105694,0.0288 0.166636,0.37037 0.03242,0.18173 0.06488,0.36278 0.07213,0.40233 l 0.01317,0.0719 0.05523,-0.11301 c 0.05283,-0.10808 0.06089,-0.11478 0.185175,-0.15378 0.161927,-0.0508 0.177989,-0.0388 0.232596,0.17346 0.02126,0.0826 0.04249,0.15407 0.04719,0.15877 0.0047,0.005 0.03472,-0.15709 0.06673,-0.35956 0.06959,-0.44039 0.07617,-0.46142 0.144375,-0.46142 0.06599,0 0.07973,0.0282 0.136541,0.27993 0.02574,0.11405 0.05269,0.21874 0.0599,0.23266 0.0072,0.0139 0.03496,-0.0607 0.06169,-0.16589 0.0267,-0.10515 0.05797,-0.20285 0.06945,-0.2171 0.03721,-0.0462 0.115798,-0.03 0.151016,0.0311 0.0321,0.0557 0.03258,0.0542 0.02094,-0.0647 -0.01579,-0.16119 0.0298,-0.21914 0.120334,-0.15293 0.02811,0.0205 0.04849,0.12404 0.09703,0.49247 0.03379,0.25655 0.06267,0.47113 0.06414,0.47683 0.0016,0.006 0.04236,-0.30559 0.09087,-0.69176 0.06239,-0.49674 0.09655,-0.70743 0.116794,-0.72025 0.05038,-0.0319 0.101532,-0.0201 0.120873,0.0279 0.01035,0.0256 0.04379,0.48988 0.07433,1.0316 0.03053,0.54172 0.05921,0.98884 0.0637,0.99359 0.0045,0.005 0.0082,-0.009 0.0082,-0.0296 0,-0.0843 0.27011,-2.80745 0.281391,-2.83685 0.01667,-0.0434 0.0667,-0.0593 0.11134,-0.0355 0.04758,0.0255 0.04276,-0.0336 0.150174,1.83991 0.04852,0.84621 0.09122,1.53555 0.09489,1.53188 0.0081,-0.008 0.02763,-0.24505 0.212622,-2.58119 0.08744,-1.10427 0.154364,-1.84424 0.168303,-1.86103 0.02984,-0.036 0.08942,-0.0357 0.119444,4.4e-4 0.01643,0.0198 0.03279,0.49588 0.05429,1.5811 0.01692,0.85403 0.04012,2.01 0.05153,2.56882 0.0114,0.55883 0.02151,1.12336 0.02247,1.25452 8.06e-4,0.13115 0.0054,0.22913 0.01,0.21773 0.0067,-0.0168 0.301601,-2.77336 0.652179,-6.09632 0.07493,-0.71029 0.0749,-0.71009 0.122045,-0.72505 0.0552,-0.0175 0.10496,0.008 0.115061,0.0586 0.0048,0.0244 0.02392,0.3383 0.04242,0.69755 0.09935,1.93129 0.401209,7.44768 0.407915,7.45438 0.0043,0.004 0.04778,-0.58644 0.09662,-1.31275 0.105758,-1.57275 0.440736,-6.53082 0.501803,-7.42725 0.02368,-0.34784 0.06929,-1.01802 0.101328,-1.48929 0.04657,-0.68518 0.0646,-0.8632 0.08998,-0.88858 0.04172,-0.0417 0.116064,-0.018 0.129384,0.0413 0.0056,0.0249 0.127112,2.08412 0.270045,4.57604 0.247192,4.30965 0.328043,5.71148 0.387495,6.71838 0.02449,0.41436 0.02747,0.43485 0.0427,0.2903 0.009,-0.0855 0.104714,-1.34989 0.212675,-2.80969 0.209199,-2.82868 0.479756,-6.47447 0.661454,-8.91319 0.08873,-1.191 0.117261,-1.49606 0.142232,-1.52103 0.04123,-0.0412 0.11561,-0.0171 0.128965,0.0418 0.0056,0.0249 0.05232,1.14168 0.103724,2.48173 0.08976,2.33986 0.210786,5.47408 0.342296,8.86453 0.03407,0.87817 0.09467,2.44036 0.134673,3.47154 0.03999,1.03119 0.0774,1.87955 0.08308,1.88523 0.0057,0.006 0.01039,-0.0402 0.01039,-0.10198 3.6e-5,-0.0618 0.01398,-0.37825 0.03097,-0.70328 0.017,-0.32504 0.128985,-2.5505 0.248868,-4.94548 0.119879,-2.39498 0.241179,-4.81174 0.269558,-5.37056 0.02839,-0.55883 0.131155,-2.60234 0.228395,-4.54114 0.09724,-1.9387896 0.213315,-4.2511896 0.25795,-5.1386596 0.05572,-1.10792 0.08888,-1.62291 0.105814,-1.64331 0.03081,-0.0371 0.09026,-0.0384 0.120019,-0.003 0.01486,0.0179 0.03319,0.44341 0.05378,1.24933 0.01716,0.67218 0.03661,1.39943 0.04319,1.61612 0.0066,0.21669 0.05814,2.21821 0.114563,4.4478196 0.05642,2.22961 0.111928,4.41309 0.123342,4.85217 0.0596,2.29198 0.08759,3.38525 0.134048,5.23577 0.02807,1.11766 0.05618,2.21406 0.06249,2.43645 0.01543,0.54361 0.04273,1.60204 0.104288,4.04348 0.063,2.49863 0.09392,3.61556 0.100244,3.62188 0.0028,0.003 0.0344,-0.7109 0.07054,-1.58563 0.03617,-0.87474 0.243684,-5.89673 0.461172,-11.15998 0.217492,-5.26326 0.402216,-9.6022196 0.410497,-9.6421296 0.01313,-0.0633 0.02296,-0.0726 0.07677,-0.0726 0.04774,0 0.06533,0.0117 0.0777,0.0518 0.0088,0.0285 0.132956,1.6334596 0.275917,3.5665496 0.142957,1.93309 0.334088,4.50847 0.424734,5.72307 0.428057,5.73571 0.663497,8.89806 0.665692,8.94145 0.0058,0.1155 0.02545,-0.11851 0.153263,-1.82908 0.129038,-1.72709 0.331608,-4.41975 0.58031,-7.71371 0.06243,-0.82683 0.193004,-2.56242 0.290167,-3.85685 0.15421,-2.05444 0.181107,-2.3568 0.21166,-2.37942 0.01925,-0.0143 0.04077,-0.0259 0.04781,-0.0259 0.007,0 0.02831,0.0117 0.04729,0.0259 0.03601,0.0271 0.05151,0.21364 0.605881,7.28343 0.08585,1.09485 0.179065,2.2799 0.207137,2.63344 0.02807,0.35355 0.07947,1.00672 0.114216,1.45151 0.05745,0.7354 0.07672,0.92687 0.08136,0.80837 8.06e-4,-0.023 0.03399,-0.3589 0.0735,-0.74648 0.07954,-0.77996 0.189061,-1.86357 0.663307,-6.56256 0.388155,-3.846 0.35272,-3.52285 0.390475,-3.56061 0.04095,-0.041 0.115364,-0.0166 0.128659,0.0421 0.0056,0.0249 0.09839,1.15568 0.206114,2.51283 0.107723,1.35716 0.259279,3.26536 0.336795,4.24046 0.101392,1.27547 0.145398,1.74673 0.15684,1.6796 0.0087,-0.0513 0.15129,-1.381 0.316762,-2.95485 0.165467,-1.57384 0.307924,-2.88486 0.316568,-2.91337 0.02211,-0.0729 0.120728,-0.0842 0.148426,-0.0169 0.01087,0.0264 0.133009,1.14442 0.271402,2.48447 0.13839,1.34004 0.257874,2.45288 0.265514,2.47297 0.0077,0.0201 0.171179,-0.86637 0.363418,-1.9699 0.341374,-1.95963 0.361887,-2.05826 0.428065,-2.05826 0.07305,0 0.08216,0.0479 0.311215,1.63813 0.125675,0.87245 0.232294,1.59561 0.236938,1.60702 0.0046,0.0114 0.0092,0.007 0.01007,-0.0108 0.004,-0.0774 0.3538,-2.28395 0.364896,-2.3019 0.01776,-0.0288 0.104819,-0.0249 0.129174,0.006 0.01132,0.0143 0.0452,0.35717 0.07529,0.76203 0.03009,0.40487 0.06068,0.79211 0.06799,0.86054 l 0.01329,0.12441 0.05043,-0.16588 c 0.02775,-0.0912 0.06196,-0.17784 0.07605,-0.19246 0.0141,-0.0146 0.07632,-0.0348 0.138281,-0.0449 0.09951,-0.0162 0.126762,-0.012 0.233579,0.0354 0.08044,0.0357 0.137455,0.078 0.170304,0.12633 0.03411,0.0502 0.05257,0.0635 0.05967,0.0431 0.0056,-0.0163 0.03512,-0.11826 0.06552,-0.2266 0.06729,-0.23998 0.08193,-0.26957 0.133387,-0.26957 0.07494,0 0.216981,0.0679 0.293152,0.14005 l 0.07573,0.0718 0.06875,-0.18099 c 0.04944,-0.13016 0.08225,-0.18713 0.116838,-0.20289 0.07035,-0.0321 0.09775,0.008 0.145651,0.21354 0.04935,0.21164 0.04634,0.22074 0.119984,-0.36288 0.03021,-0.2395 0.0636,-0.45178 0.07418,-0.47174 0.02022,-0.0381 0.07267,-0.0469 0.115991,-0.0194 0.01535,0.01 0.06036,0.24084 0.112041,0.5751 0.04752,0.30735 0.08958,0.56264 0.09347,0.56733 0.004,0.005 0.02501,-0.008 0.04695,-0.0276 0.06191,-0.056 0.129101,-0.0337 0.182371,0.0605 0.02578,0.0456 0.04706,0.0783 0.0473,0.0726 0.002,-0.0467 0.14642,-0.77282 0.157339,-0.79048 0.0078,-0.0126 0.0661,-0.0458 0.129626,-0.0739 0.09757,-0.0431 0.134047,-0.0489 0.234867,-0.0372 0.06565,0.008 0.128465,0.0248 0.139594,0.0382 0.01112,0.0134 0.0581,0.17816 0.104372,0.36613 0.08211,0.33351 0.158524,0.53623 0.189714,0.50328 0.0085,-0.009 0.04552,-0.11177 0.08222,-0.22835 0.0672,-0.21351 0.09627,-0.25105 0.171927,-0.22201 0.01833,0.007 0.05147,0.0609 0.07367,0.1197 0.02449,0.0648 0.04464,0.0947 0.05121,0.0758 0.006,-0.0171 0.03987,-0.20796 0.07535,-0.42411 0.03548,-0.21615 0.07384,-0.40424 0.08524,-0.41797 0.03347,-0.0403 0.266188,-0.0599 0.30079,-0.0253 0.0178,0.0178 0.04885,0.17529 0.08122,0.41182 0.07594,0.55495 0.07048,0.54068 0.12499,0.32641 0.0419,-0.16473 0.05477,-0.189 0.142989,-0.26957 0.06123,-0.0559 0.133556,-0.15728 0.196351,-0.27516 0.08004,-0.15025 0.109455,-0.18784 0.15094,-0.19286 0.02835,-0.003 0.06105,0.006 0.07268,0.0208 0.01164,0.0148 0.04279,0.19252 0.06923,0.39487 0.02646,0.20234 0.05104,0.36494 0.05464,0.36134 0.0036,-0.004 0.02972,-0.17725 0.05805,-0.38587 0.02831,-0.20862 0.06259,-0.39267 0.07614,-0.409 0.05479,-0.066 0.10873,-0.0221 0.207971,0.16931 0.08993,0.17344 0.103973,0.18978 0.198929,0.23144 0.09841,0.0432 0.103526,0.0497 0.139026,0.17626 0.07267,0.25913 0.07142,0.25889 0.134374,0.0261 0.03109,-0.11495 0.06327,-0.21992 0.07153,-0.23328 0.02421,-0.0392 0.0887,-0.0284 0.215325,0.0362 0.177542,0.0905 0.298871,0.22808 0.385529,0.43719 0.0566,0.13656 0.08146,0.17508 0.110434,0.17108 0.06236,-0.009 0.180716,-0.01 0.212172,-0.002 0.02147,0.005 0.05482,-0.0689 0.12091,-0.26879 0.0502,-0.15183 0.10467,-0.28119 0.121042,-0.28747 0.04741,-0.0182 0.254486,0.0143 0.284879,0.0447 0.01522,0.0152 0.0443,0.10553 0.06462,0.20068 0.02034,0.0952 0.04344,0.18506 0.05138,0.19978 0.0079,0.0147 0.03959,-0.0924 0.07039,-0.23796 0.06115,-0.28932 0.08752,-0.33798 0.164194,-0.30305 0.04183,0.019 0.05441,0.055 0.09749,0.27843 0.02719,0.1411 0.05365,0.24403 0.05877,0.22874 0.0051,-0.0153 0.03395,-0.16926 0.06409,-0.34214 l 0.05478,-0.31434 h 0.07247 0.07246 l 0.09453,0.35251 c 0.09682,0.36105 0.152208,0.53927 0.182323,0.58671 0.01092,0.0172 0.03436,-0.0388 0.06511,-0.15551 0.02642,-0.1003 0.05612,-0.2117 0.06596,-0.24754 0.012,-0.0437 0.05574,-0.0938 0.132655,-0.15183 0.115407,-0.0871 0.319858,-0.17331 0.367658,-0.15496 0.01414,0.005 0.05816,0.0519 0.09786,0.10323 l 0.07217,0.0934 0.10695,-0.0121 c 0.120764,-0.0137 0.110417,-0.0222 0.258034,0.21479 0.05496,0.0883 0.0928,0.12888 0.115899,0.12441 0.02251,-0.004 0.06019,-0.0778 0.109685,-0.21399 0.09667,-0.26589 0.266734,-0.64541 0.302504,-0.6751 0.03577,-0.0297 0.107542,-0.007 0.120788,0.0386 0.0057,0.0194 0.05381,0.30832 0.106978,0.6421 0.07758,0.487 0.09164,0.61296 0.07117,0.63763 -0.03214,0.0387 -0.09096,0.0396 -0.122287,0.002 -0.01764,-0.0213 -0.164892,-0.84672 -0.16817,-0.94272 -8.06e-4,-0.0282 -0.0838,0.17244 -0.167695,0.40615 -0.08886,0.24754 -0.127402,0.31664 -0.176616,0.31664 -0.01502,0 -0.07797,-0.0224 -0.139904,-0.0498 -0.09826,-0.0435 -0.12277,-0.0671 -0.192396,-0.18588 l -0.07979,-0.13608 -0.10368,0.0114 -0.103675,0.0114 -0.08036,-0.1027 c -0.0765,-0.0978 -0.08349,-0.10174 -0.145152,-0.0827 -0.03565,0.011 -0.0992,0.0494 -0.141274,0.0854 -0.07202,0.0616 -0.08197,0.0859 -0.170381,0.41649 -0.102382,0.38281 -0.127462,0.43077 -0.200064,0.38256 -0.05195,-0.0345 -0.22724,-0.45159 -0.279994,-0.66625 -0.01893,-0.077 -0.04051,-0.13996 -0.04799,-0.13996 -0.0075,0 -0.03991,0.15628 -0.07208,0.34729 -0.03218,0.19101 -0.06818,0.35897 -0.08002,0.37325 -0.02831,0.0341 -0.0884,0.0331 -0.117542,-0.002 -0.01277,-0.0154 -0.04664,-0.14298 -0.07527,-0.28354 -0.02864,-0.14056 -0.05525,-0.25876 -0.05915,-0.26267 -0.004,-0.004 -0.0292,0.10174 -0.05624,0.23477 -0.04765,0.23453 -0.0758,0.29794 -0.13228,0.29794 -0.05417,0 -0.08241,-0.0713 -0.166744,-0.42115 -0.110961,-0.4603 -0.123334,-0.46551 -0.238444,-0.10041 -0.04665,0.14797 -0.09824,0.28018 -0.114651,0.29379 -0.02312,0.0192 -0.0532,0.0192 -0.133753,-1.6e-4 -0.087,-0.0209 -0.119504,-0.0196 -0.199699,0.008 -0.06201,0.0212 -0.108029,0.0261 -0.130507,0.0141 -0.01909,-0.0102 -0.0764,-0.1225 -0.12733,-0.24951 -0.08415,-0.20985 -0.102757,-0.23933 -0.203851,-0.32307 -0.06118,-0.0507 -0.119326,-0.0922 -0.129202,-0.0922 -0.0099,0 -0.02425,0.0257 -0.03194,0.057 -0.08091,0.33016 -0.154158,0.57538 -0.179431,0.60066 -0.01909,0.0191 -0.04744,0.0256 -0.07437,0.017 -0.04399,-0.014 -0.05412,-0.041 -0.189081,-0.50493 -0.04235,-0.14557 -0.04772,-0.15316 -0.134986,-0.19057 -0.06053,-0.0259 -0.102773,-0.0619 -0.126496,-0.10759 -0.01962,-0.0377 -0.03838,-0.0593 -0.04175,-0.0479 -0.0032,0.0114 -0.03939,0.25868 -0.08009,0.5495 -0.04068,0.29082 -0.08287,0.54975 -0.09376,0.57542 -0.0201,0.0474 -0.0715,0.0598 -0.119955,0.0291 -0.01716,-0.0109 -0.0547,-0.21957 -0.105266,-0.58547 -0.07752,-0.56089 -0.07903,-0.56766 -0.112733,-0.50322 -0.01877,0.0359 -0.07631,0.10134 -0.127825,0.14538 l -0.09367,0.0801 -0.09435,0.40412 c -0.09765,0.41826 -0.120502,0.46733 -0.203351,0.43668 -0.0516,-0.0191 -0.04201,0.0293 -0.149139,-0.75313 -0.05071,-0.3704 -0.0872,-0.57542 -0.102396,-0.57542 -0.01482,0 -0.05725,0.20559 -0.113789,0.55119 -0.05587,0.34145 -0.101372,0.56238 -0.119593,0.5806 -0.06608,0.0661 -0.125042,0.0142 -0.183378,-0.16146 -0.01816,-0.0547 -0.04044,-0.0994 -0.0495,-0.0994 -0.0091,0 -0.0381,0.0748 -0.06452,0.16627 -0.051,0.1765 -0.09608,0.23905 -0.158105,0.21937 -0.0209,-0.007 -0.08655,-0.0845 -0.145829,-0.17294 -0.0992,-0.14804 -0.11463,-0.18841 -0.193681,-0.50648 -0.09545,-0.38408 -0.107372,-0.40021 -0.251211,-0.34011 l -0.07028,0.0294 -0.09016,0.48369 c -0.04959,0.26603 -0.0994,0.49536 -0.110688,0.50962 -0.01128,0.0143 -0.04225,0.0259 -0.06881,0.0259 -0.03786,0 -0.06454,-0.0291 -0.12366,-0.13479 -0.04146,-0.0741 -0.08228,-0.13478 -0.09071,-0.13478 -0.0084,0 -0.03725,0.0233 -0.06403,0.0518 -0.05233,0.0557 -0.127805,0.0679 -0.159821,0.0259 -0.01087,-0.0143 -0.04082,-0.17055 -0.06657,-0.34733 -0.02578,-0.17677 -0.04918,-0.3238 -0.05205,-0.32673 -0.0028,-0.003 -0.02634,0.16504 -0.05212,0.37325 -0.05577,0.45028 -0.06481,0.4928 -0.110953,0.5219 -0.07256,0.0458 -0.104888,-0.0102 -0.173745,-0.30106 -0.03617,-0.15275 -0.06698,-0.28239 -0.06847,-0.28809 -0.0016,-0.006 -0.02211,0.041 -0.04584,0.10368 -0.07944,0.21011 -0.119738,0.21675 -0.259895,0.0428 -0.09172,-0.1138 -0.159885,-0.16528 -0.185259,-0.1399 -0.0057,0.006 -0.04633,0.13233 -0.09024,0.28137 -0.04392,0.14903 -0.08574,0.28051 -0.09295,0.29216 -0.0072,0.0116 -0.03561,0.0212 -0.06308,0.0212 -0.03899,0 -0.07278,-0.0338 -0.153711,-0.15372 -0.0799,-0.11841 -0.120446,-0.15924 -0.176527,-0.17774 -0.143851,-0.0475 -0.159611,-0.0336 -0.235351,0.20705 -0.16564,0.52632 -0.175287,0.54891 -0.23732,0.55605 -0.04395,0.005 -0.06105,-0.004 -0.07464,-0.0415 -0.0097,-0.0264 -0.03955,-0.35502 -0.06637,-0.73023 -0.02876,-0.40276 -0.05506,-0.66181 -0.06418,-0.63244 -0.0085,0.0273 -0.054,0.3017 -0.101106,0.60963 -0.190507,1.24521 -0.225519,1.44788 -0.255255,1.47762 -0.03649,0.0365 -0.110925,0.0174 -0.126319,-0.0324 -0.006,-0.0194 -0.109209,-0.72573 -0.229378,-1.56968 -0.120168,-0.84394 -0.225403,-1.56127 -0.233848,-1.59405 -0.011,-0.0426 -0.118091,0.52809 -0.375582,2.001 -0.198123,1.13334 -0.364287,2.06761 -0.369253,2.07616 -0.01506,0.0259 -0.103635,0.0174 -0.128317,-0.0123 -0.02292,-0.0276 -0.06063,-0.3672 -0.365459,-3.28984 -0.143561,-1.37642 -0.169954,-1.60502 -0.174711,-1.51324 -0.01377,0.26596 -0.649186,6.0662 -0.666868,6.0875 -0.03013,0.0363 -0.08986,0.0376 -0.118964,0.002 -0.0209,-0.0252 -0.103522,-1.02222 -0.525945,-6.3461 -0.10734,-1.35287 -0.178142,-2.14763 -0.187498,-2.10468 -0.0083,0.0379 -0.04816,0.40492 -0.08866,0.81548 -0.04049,0.41057 -0.213103,2.12283 -0.383576,3.80502 -0.17047,1.68218 -0.380588,3.75788 -0.466924,4.61266 -0.08634,0.85478 -0.167046,1.56628 -0.179355,1.58111 -0.02574,0.031 -0.11281,0.0362 -0.130394,0.008 -0.012,-0.0194 -0.103462,-1.15641 -0.539792,-6.70955 -0.370732,-4.71827 -0.41792,-5.29141 -0.431054,-5.23578 -0.0067,0.0285 -0.05532,0.6397 -0.107981,1.35819 -0.05266,0.7185 -0.230175,3.0886 -0.394486,5.26689 -0.164312,2.17829 -0.384567,5.11292 -0.489459,6.52139 -0.172173,2.31192 -0.194462,2.56487 -0.229277,2.60205 -0.0408,0.0436 -0.09051,0.0306 -0.12333,-0.0322 -0.0085,-0.0163 -0.105222,-1.24742 -0.214838,-2.73573 -0.109621,-1.48831 -0.385699,-5.20675 -0.613514,-8.2632 -0.227811,-3.05645 -0.435943,-5.84893 -0.462509,-6.2055 -0.02658,-0.35658 -0.05228,-0.65229 -0.05713,-0.65715 -0.0095,-0.009 -0.01015,0.007 -0.587926,13.97501 -0.210863,5.09789 -0.390544,9.33887 -0.399292,9.4244 -0.01502,0.14702 -0.01885,0.15586 -0.06952,0.16176 -0.02948,0.003 -0.06368,-0.006 -0.07598,-0.0207 z"
       id="path1" /><text
       xml:space="preserve"
       style="font-size:12.0952px;font-family:'Alex Brush';-inkscape-font-specification:'Alex Brush, Normal';fill:#ffffff;stroke:none;stroke-width:0.360892;stroke-dasharray:none;stroke-opacity:1"
       x="13.812675"
       y="22.413801"
       id="text1"><tspan
         sodipodi:role="line"
         id="tspan1"
         style="fill:#ffffff;stroke:none;stroke-width:0.360892;stroke-dasharray:none;stroke-opacity:1"
         x="13.812675"
         y="22.413801">SafeQuake Alert</tspan></text></g></svg>
